PathFileType	4	(X/Y/Z)	W12_1_OpenSim.trc																																																																																																				
DataRate	CameraRate	NumFrames	NumMarkers	Units	OrigDataRate	OrigDataStartFrame	OrigNumFrames																																																																																																
100	100	4	34	mm	100	1852	2962																																																																																																
Frame#	Time	R.ASIS			R.PSIS			S2			L.PSIS			L.ASIS			R.TH1			R.TH2			R.TH3			R.Knee			R.SH1			R.SH2			R.SH3			R.SH4			R.Ankle			R.RFoot			R.Heel			R.MT5			R.MT1			L.TH1			L.TH2			L.TH3			L.TH4			L.Knee			L.SH1			L.SH2			L.SH3			L.Ankle			L.RFoot			L.Heel			L.MT5			L.MT1			T.Top			T.Lat			T.Bot		
		X1	Y1	Z1	X2	Y2	Z2	X3	Y3	Z3	X4	Y4	Z4	X5	Y5	Z5	X6	Y6	Z6	X7	Y7	Z7	X8	Y8	Z8	X9	Y9	Z9	X10	Y10	Z10	X11	Y11	Z11	X12	Y12	Z12	X13	Y13	Z13	X14	Y14	Z14	X15	Y15	Z15	X16	Y16	Z16	X17	Y17	Z17	X18	Y18	Z18	X19	Y19	Z19	X20	Y20	Z20	X21	Y21	Z21	X22	Y22	Z22	X23	Y23	Z23	X24	Y24	Z24	X25	Y25	Z25	X26	Y26	Z26	X27	Y27	Z27	X28	Y28	Z28	X29	Y29	Z29	X30	Y30	Z30	X31	Y31	Z31	X32	Y32	Z32	X33	Y33	Z33	X34	Y34	Z34
1852	18.51	1049.7943	995.592	-457.2123	844.1329	1027.1587	-512.987	834.6285	1022.0092	-563.9018	845.6699	1030.3252	-615.0773	1051.0742	995.1176	-693.0882	1082.0895	744.6988	-394.8993	1005.244	714.4044	-393.5277	1046.0217	612.1596	-401.2596	1100.4463	497.2006	-415.05	1124.869	411.0654	-399.775	1125.9662	297.9454	-391.6043	1043.9392	409.9324	-418.2337	1044.076	297.9753	-401.3992	1111.3906	81.2549	-423.5446	1145.3507	40.8233	-407.1603	1071.4232	43.2609	-482.3686	1228.8512	41.8104	-378.0599	1279.7105	59.244	-453.2132	1010.5966	707.1756	-715.1184	983.8352	601.3337	-710.069	936.0475	720.5186	-748.2737	909.4196	613.4413	-736.6976	888.3733	487.5476	-710.5939	878.3632	361.6951	-709.1175	799.6641	381.3655	-726.4404	770.9493	276.6591	-710.3741	752.0977	93.6202	-669.9015	781.6812	34.1176	-673.8801	696.6431	78.6476	-624.5194	862.4564	15.5951	-691.4499	898.1521	25.4832	-599.7623	996.6819	355.3668	-458.8765	989.444	355.2922	-495.9291	1003.6591	326.3732	-475.2158
1853	18.52	1049.2007	994.3718	-456.8749	843.6733	1026.3358	-512.408	833.6922	1021.1731	-563.2278	844.8236	1029.7786	-614.3851	1049.9967	994.334	-692.9291	1079.9888	742.4392	-395.2614	1002.7342	712.6045	-393.6403	1042.7764	610.1233	-402.0853	1097.6774	495.2305	-415.5572	1126.0142	410.9506	-400.4878	1134.162	298.3685	-391.3041	1045.1267	404.8148	-418.3695	1052.2476	293.2541	-400.5719	1131.4308	81.4482	-421.6844	1170.2859	41.1575	-406.0839	1094.9718	40.0666	-480.4989	1253.9652	48.9424	-377.3497	1301.9587	67.7033	-453.325	1006.645	706.4795	-715.584	979.134	600.9701	-710.7244	932.3961	720.5236	-747.6097	904.9727	613.6005	-736.8328	882.5335	487.8749	-710.7398	871.0892	362.2235	-709.5931	791.1517	383.8208	-727.8115	763.2208	278.0922	-710.6406	741.4216	95.6475	-670.1576	769.2596	35.7967	-673.6088	685.7577	81.3468	-624.7908	850.576	15.9111	-691.0969	886.1416	25.4445	-600.0963	1004.5682	346.234	-461.17	993.3424	346.3069	-495.3138	1013.7475	315.1789	-474.3948
1854	18.53	1048.9908	992.9265	-456.6638	842.9885	1025.2637	-511.5745	833.1769	1020.3068	-562.5795	843.8788	1029.076	-613.8357	1049.0247	993.3846	-692.5721	1078.1165	739.9125	-395.6114	1000.6918	710.9753	-393.5637	1039.3201	607.9592	-402.4052	1095.3488	492.8694	-415.9736	1127.0475	410.7426	-400.8946	1141.7241	298.92	-391.2984	1046.4652	399.8686	-417.8012	1060.0386	289.2258	-399.5896	1152.7425	81.1766	-421.0811	1193.0322	43.9242	-405.9115	1115.9459	38.3858	-479.3276	1276.1442	54.9895	-378.1139	1322.4669	77.5194	-455.0762	1002.9694	705.897	-716.118	974.7634	600.5452	-711.4755	923.1735	722.8546	-755.7626	900.2375	613.7219	-736.8329	877.0199	488.1734	-711.0316	863.3912	362.3372	-708.9288	785.4664	385.2576	-727.0123	754.194	280.0539	-710.189	730.7878	97.7378	-670.2755	757.5435	37.1343	-673.7407	674.8429	84.1621	-624.9268	838.8856	16.4444	-690.9517	874.1801	25.7051	-600.0308	1004.4529	338.9921	-456.4316	996.3123	338.4168	-493.7756	1019.5397	308.4998	-472.8037
1855	18.54	1048.7565	991.4573	-456.4605	842.7895	1024.0753	-510.7074	832.8189	1019.1099	-561.7956	843.165	1027.8823	-612.8271	1048.0035	992.372	-692.4968	1076.5217	737.5179	-395.8135	998.7374	709.4631	-393.3176	1036.1842	605.7371	-402.5794	1092.8212	490.6309	-415.9758	1128.1908	410.6337	-401.082	1148.6999	299.8894	-391.3645	1047.9742	395.5536	-416.8471	1068.3223	286.676	-398.7251	1170.677	82.2479	-421.2411	1213.2308	45.8833	-406.6996	1135.7323	37.974	-478.3554	1296.3829	61.2527	-380.3105	1340.235	86.9482	-457.5931	999.507	705.0963	-716.8487	970.7515	600.0229	-712.2224	919.0421	723.1104	-756.9216	896.4831	614.0322	-737.1766	871.8374	488.3271	-711.3023	856.6765	362.5806	-709.3724	778.6681	386.6644	-727.0459	746.04	281.9553	-710.4741	719.8449	99.8247	-670.8803	746.0025	38.6716	-674.2283	663.9759	87.2876	-625.225	827.136	16.681	-690.9677	862.219	25.737	-600.2469	1009.0093	332.3717	-454.6165	1001.2477	330.7873	-492.2249	1024.8326	302.4658	-471.1619
